<svg xmlns="http://www.w3.org/2000/svg" xmlns:xlink="http://www.w3.org/1999/xlink" width="304px" height="145px">
<path fill-rule="evenodd" fill="rgb(242, 126, 63)" d="M114.000,113.000 L8.000,113.000 C3.582,113.000 0.000,109.418 0.000,105.000 L0.000,41.000 C0.000,36.582 3.582,33.000 8.000,33.000 L114.000,33.000 C118.418,33.000 122.000,36.582 122.000,41.000 L122.000,105.000 C122.000,109.418 118.418,113.000 114.000,113.000 ZM33.489,68.449 C33.645,66.408 34.303,64.760 35.461,63.503 C36.618,62.248 38.434,61.619 40.907,61.619 C43.262,61.619 44.969,62.071 46.029,62.973 C47.089,63.877 47.834,64.975 48.266,66.270 C48.502,66.938 48.737,67.389 48.973,67.624 C49.208,67.860 49.640,67.978 50.268,67.978 L57.981,67.978 C58.334,67.978 58.637,67.851 58.893,67.595 C59.030,67.458 59.124,67.304 59.187,67.138 C59.213,67.116 59.243,67.107 59.268,67.083 C59.531,66.819 59.664,66.504 59.664,66.138 C59.623,63.416 58.759,60.906 57.073,58.609 C55.386,56.313 53.100,54.494 50.214,53.153 C47.328,51.811 44.138,51.141 40.643,51.141 C36.863,51.141 33.561,51.883 30.736,53.366 C27.911,54.850 25.727,56.841 24.183,59.341 C22.638,61.840 21.805,64.614 21.683,67.662 C21.601,70.183 21.561,72.195 21.561,73.698 C21.561,74.958 21.601,76.563 21.683,78.514 C21.845,81.562 22.699,84.336 24.244,86.835 C25.788,89.335 27.962,91.327 30.767,92.810 C33.571,94.294 36.863,95.035 40.643,95.035 C44.138,95.035 47.328,94.365 50.214,93.023 C53.100,91.682 55.386,89.864 57.073,87.567 C58.759,85.271 59.623,82.761 59.664,80.038 C59.664,79.672 59.531,79.358 59.268,79.093 C59.003,78.829 58.688,78.697 58.323,78.697 L50.336,78.697 C49.686,78.697 49.239,78.819 48.995,79.063 C48.751,79.306 48.507,79.774 48.263,80.465 C47.821,81.791 47.058,82.918 45.980,83.847 C44.917,84.726 43.230,85.169 40.907,85.169 C38.434,85.169 36.618,84.542 35.461,83.285 C34.303,82.029 33.645,80.381 33.489,78.340 C33.410,76.927 33.371,75.278 33.371,73.394 C33.371,71.432 33.410,69.784 33.489,68.449 ZM74.489,68.449 C74.645,66.408 75.303,64.760 76.461,63.503 C77.618,62.248 79.434,61.619 81.907,61.619 C84.262,61.619 85.969,62.071 87.029,62.973 C88.089,63.877 88.834,64.975 89.266,66.270 C89.502,66.938 89.737,67.389 89.973,67.624 C90.208,67.860 90.640,67.978 91.268,67.978 L98.981,67.978 C99.334,67.978 99.637,67.851 99.893,67.595 C100.030,67.458 100.124,67.304 100.187,67.138 C100.213,67.116 100.243,67.107 100.268,67.083 C100.531,66.819 100.664,66.504 100.664,66.138 C100.623,63.416 99.759,60.906 98.073,58.609 C96.386,56.313 94.100,54.494 91.214,53.153 C88.328,51.811 85.138,51.141 81.643,51.141 C77.863,51.141 74.561,51.883 71.736,53.366 C68.911,54.850 66.727,56.841 65.183,59.341 C63.638,61.840 62.805,64.614 62.683,67.662 C62.601,70.183 62.561,72.195 62.561,73.698 C62.561,74.958 62.601,76.563 62.683,78.514 C62.845,81.562 63.699,84.336 65.244,86.835 C66.788,89.335 68.962,91.327 71.767,92.810 C74.571,94.294 77.863,95.035 81.643,95.035 C85.138,95.035 88.328,94.365 91.214,93.023 C94.100,91.682 96.386,89.864 98.073,87.567 C99.759,85.271 100.623,82.761 100.664,80.038 C100.664,79.672 100.531,79.358 100.268,79.093 C100.003,78.829 99.688,78.697 99.323,78.697 L91.336,78.697 C90.686,78.697 90.239,78.819 89.995,79.063 C89.751,79.306 89.507,79.774 89.263,80.465 C88.821,81.791 88.058,82.918 86.980,83.847 C85.917,84.726 84.230,85.169 81.907,85.169 C79.434,85.169 77.618,84.542 76.461,83.285 C75.303,82.029 74.645,80.381 74.489,78.340 C74.410,76.927 74.371,75.278 74.371,73.394 C74.371,71.432 74.410,69.784 74.489,68.449 Z"/>
<path fill-rule="evenodd" fill="rgb(242, 126, 63)" d="M303.582,87.816 L303.582,97.455 C303.582,102.688 301.650,105.999 295.475,105.999 C289.523,105.999 288.349,102.674 288.193,100.835 L292.794,100.835 C293.111,101.955 293.936,102.717 295.677,102.717 C298.607,102.717 299.158,100.931 299.158,97.735 L299.158,96.956 C298.308,98.366 296.959,99.247 294.564,99.247 C290.269,99.247 287.822,95.728 287.822,91.345 C287.822,86.247 290.874,82.760 294.951,82.760 C297.748,82.760 298.912,84.078 299.158,84.838 C299.190,84.396 299.305,83.405 299.336,83.138 L303.617,83.138 C303.589,84.592 303.582,86.248 303.582,87.816 ZM295.953,86.375 C293.994,86.375 292.459,87.885 292.459,91.143 C292.459,93.948 293.861,95.603 295.858,95.603 C298.575,95.603 299.301,93.738 299.301,91.002 C299.301,88.259 298.817,86.375 295.953,86.375 ZM277.410,99.819 C272.353,99.819 269.403,96.212 269.403,91.345 C269.403,86.314 272.446,82.760 277.623,82.760 C282.422,82.760 285.526,86.146 285.526,91.258 C285.526,96.190 282.574,99.819 277.410,99.819 ZM277.445,86.292 C275.352,86.292 273.983,87.842 273.983,91.289 C273.983,94.427 275.334,96.286 277.508,96.286 C279.717,96.286 280.945,94.426 280.945,91.317 C280.945,87.905 279.693,86.292 277.445,86.292 ZM272.423,58.571 C272.423,56.738 271.813,55.410 269.821,55.410 C267.903,55.410 266.806,56.477 266.806,59.355 L266.806,68.441 L262.292,68.441 L262.292,56.245 C262.292,54.859 262.292,53.342 262.260,52.138 L266.632,52.138 C266.723,52.559 266.782,53.691 266.806,54.215 C267.360,53.191 268.679,51.760 271.535,51.760 C274.810,51.760 276.937,53.972 276.937,58.069 L276.937,68.441 L272.423,68.441 L272.423,58.571 ZM266.306,99.441 L261.792,99.441 L261.792,76.449 L266.306,76.449 L266.306,99.441 ZM251.050,68.819 C245.994,68.819 243.043,65.212 243.043,60.345 C243.043,55.314 246.086,51.760 251.263,51.760 C256.062,51.760 259.166,55.146 259.166,60.258 C259.166,65.190 256.214,68.819 251.050,68.819 ZM251.085,55.292 C248.992,55.292 247.624,56.842 247.624,60.289 C247.624,63.427 248.974,65.286 251.148,65.286 C253.358,65.286 254.586,63.426 254.586,60.317 C254.586,56.905 253.334,55.292 251.085,55.292 ZM240.186,97.455 C240.186,102.688 238.255,105.999 232.080,105.999 C226.127,105.999 224.953,102.674 224.797,100.835 L229.398,100.835 C229.715,101.955 230.540,102.717 232.281,102.717 C235.211,102.717 235.763,100.931 235.763,97.735 L235.763,96.956 C234.912,98.366 233.563,99.247 231.168,99.247 C226.873,99.247 224.427,95.728 224.427,91.345 C224.427,86.247 227.478,82.760 231.555,82.760 C234.352,82.760 235.516,84.078 235.763,84.838 C235.794,84.396 235.909,83.405 235.941,83.138 L240.221,83.138 C240.194,84.592 240.186,86.248 240.186,87.816 L240.186,97.455 ZM232.557,86.375 C230.599,86.375 229.063,87.885 229.063,91.143 C229.063,93.948 230.465,95.603 232.463,95.603 C235.180,95.603 235.905,93.738 235.905,91.002 C235.905,88.259 235.422,86.375 232.557,86.375 ZM235.550,58.295 C235.550,56.822 235.015,55.383 233.168,55.383 C231.249,55.383 230.501,56.619 230.501,59.120 L230.501,68.441 L226.074,68.441 L226.074,58.465 C226.074,56.776 225.659,55.410 223.731,55.410 C221.896,55.410 221.026,56.539 221.026,59.335 L221.026,68.441 L216.567,68.441 L216.567,56.339 C216.567,54.930 216.567,53.533 216.536,52.138 L220.852,52.138 C220.911,52.535 221.002,53.445 221.026,54.081 C221.854,52.867 223.164,51.760 225.556,51.760 C227.900,51.760 229.188,52.973 229.763,54.240 C230.717,52.907 232.125,51.760 234.786,51.760 C237.627,51.760 239.953,53.506 239.953,57.746 L239.953,68.441 L235.550,68.441 L235.550,58.295 ZM221.352,89.069 L221.352,99.441 L216.838,99.441 L216.838,89.571 C216.838,87.738 216.227,86.410 214.235,86.410 C212.317,86.410 211.220,87.477 211.220,90.355 L211.220,99.441 L206.706,99.441 L206.706,87.245 C206.706,85.859 206.706,84.342 206.675,83.138 L211.046,83.138 C211.137,83.559 211.196,84.691 211.220,85.215 C211.774,84.191 213.093,82.760 215.949,82.760 C219.224,82.760 221.352,84.972 221.352,89.069 ZM208.119,58.295 C208.119,56.822 207.585,55.383 205.737,55.383 C203.819,55.383 203.071,56.619 203.071,59.120 L203.071,68.441 L198.644,68.441 L198.644,58.465 C198.644,56.776 198.228,55.410 196.301,55.410 C194.465,55.410 193.595,56.539 193.595,59.335 L193.595,68.441 L189.137,68.441 L189.137,56.339 C189.137,54.930 189.137,53.533 189.105,52.138 L193.421,52.138 C193.480,52.535 193.571,53.445 193.595,54.081 C194.423,52.867 195.733,51.760 198.126,51.760 C200.469,51.760 201.758,52.973 202.332,54.240 C203.286,52.907 204.694,51.760 207.355,51.760 C210.196,51.760 212.522,53.506 212.522,57.746 L212.522,68.441 L208.119,68.441 L208.119,58.295 ZM195.681,85.983 C193.775,85.983 193.358,86.793 193.150,87.973 L188.858,87.973 C189.103,85.077 190.895,82.732 195.851,82.760 C200.218,82.788 202.594,84.493 202.594,88.374 L202.594,95.228 C202.594,96.781 202.720,99.048 202.815,99.441 L198.503,99.441 C198.377,99.118 198.282,98.259 198.275,97.847 C197.684,98.763 196.575,99.819 193.691,99.819 C189.760,99.819 188.102,97.235 188.102,94.706 C188.102,90.992 191.085,89.278 195.865,89.278 C196.661,89.278 197.645,89.278 198.191,89.278 L198.191,88.282 C198.191,87.123 197.774,85.983 195.681,85.983 ZM196.356,92.019 C193.636,92.019 192.628,92.849 192.628,94.421 C192.628,95.601 193.352,96.595 194.974,96.595 C197.842,96.595 198.195,94.601 198.195,92.447 L198.195,92.019 C197.818,92.019 196.952,92.019 196.356,92.019 ZM177.923,68.819 C172.867,68.819 169.916,65.212 169.916,60.345 C169.916,55.314 172.959,51.760 178.136,51.760 C182.935,51.760 186.039,55.146 186.039,60.258 C186.039,65.190 183.087,68.819 177.923,68.819 ZM177.958,55.292 C175.865,55.292 174.497,56.842 174.497,60.289 C174.497,63.427 175.847,65.286 178.021,65.286 C180.230,65.286 181.458,63.426 181.458,60.317 C181.458,56.905 180.206,55.292 177.958,55.292 ZM158.231,99.748 C151.346,99.748 148.091,94.875 148.091,88.698 C148.091,82.745 151.449,77.411 158.457,77.411 C164.239,77.411 167.042,80.805 167.572,84.435 L162.877,84.435 C162.424,82.761 161.259,81.093 158.307,81.093 C154.435,81.093 152.940,84.576 152.940,88.528 C152.940,92.199 154.237,96.066 158.433,96.066 C161.497,96.066 162.464,94.014 162.873,92.747 L167.596,92.747 C166.723,96.797 163.669,99.748 158.231,99.748 ZM158.433,65.066 C161.497,65.066 162.464,63.014 162.873,61.747 L167.596,61.747 C166.723,65.797 163.669,68.748 158.231,68.748 C151.346,68.748 148.091,63.875 148.091,57.698 C148.091,51.745 151.449,46.411 158.457,46.411 C164.239,46.411 167.042,49.805 167.572,53.435 L162.877,53.435 C162.424,51.761 161.259,50.093 158.307,50.093 C154.435,50.093 152.940,53.576 152.940,57.528 C152.940,61.199 154.237,65.066 158.433,65.066 ZM175.069,85.063 C175.785,84.007 177.106,82.760 179.739,82.760 C182.780,82.760 185.201,84.559 185.201,88.981 L185.201,99.441 L180.715,99.441 L180.715,89.656 C180.715,87.537 179.963,86.410 178.070,86.410 C175.561,86.410 175.069,88.276 175.069,90.792 L175.069,99.441 L170.555,99.441 L170.555,76.449 L175.069,76.449 L175.069,85.063 ZM251.219,82.760 C256.818,82.760 258.722,86.810 258.722,90.880 C258.722,91.432 258.722,91.790 258.662,92.255 L247.903,92.255 C247.907,94.294 248.929,96.286 251.176,96.286 C253.055,96.286 253.592,95.532 254.020,94.546 L258.538,94.546 C257.959,96.541 256.179,99.819 251.057,99.819 C245.688,99.819 243.358,95.803 243.358,91.526 C243.358,86.412 245.982,82.760 251.219,82.760 ZM254.200,89.482 C254.169,87.584 253.410,85.987 251.211,85.987 C249.048,85.987 248.178,87.478 247.998,89.482 L254.200,89.482 Z"/>
</svg>
