<svg xmlns="http://www.w3.org/2000/svg" xmlns:xlink="http://www.w3.org/1999/xlink" width="272px" height="145px">
<path fill-rule="evenodd" fill="rgb(159, 83, 42)" d="M28.999,72.999 L40.999,84.999 L52.999,72.999 L69.999,90.0 L40.999,120.0 L11.999,90.0 L28.999,72.999 Z"/>
<path fill-rule="evenodd" fill="rgb(242, 126, 63)" d="M81.999,102.999 L41.9,62.937 L0.0,102.999 L0.45,69.84 L41.9,28.573 L81.969,69.84 L81.999,102.999 Z"/>
<path fill-rule="evenodd" fill="rgb(242, 126, 63)" d="M258.764,92.30 L258.764,101.897 C258.764,107.37 256.685,110.26 251.288,110.26 C246.234,110.26 244.806,107.197 244.542,105.89 L247.694,105.89 C248.132,106.719 249.427,107.615 251.423,107.615 C254.916,107.615 255.749,105.413 255.749,101.828 L255.749,100.634 C254.899,102.352 253.456,103.340 250.833,103.340 C246.833,103.340 244.199,100.76 244.199,95.451 C244.199,90.260 247.237,87.28 251.139,87.28 C254.137,87.28 255.408,88.439 255.749,89.441 C255.781,88.771 255.855,87.726 255.887,87.406 L258.813,87.406 C258.798,88.431 258.764,90.489 258.764,92.30 ZM251.672,89.610 C248.908,89.610 247.399,91.898 247.399,95.317 C247.399,98.578 249.83,100.743 251.577,100.743 C254.884,100.743 255.838,98.515 255.838,95.122 C255.838,91.695 254.979,89.610 251.672,89.610 ZM233.987,103.818 C229.320,103.818 226.517,100.265 226.517,95.451 C226.517,90.675 229.291,87.28 234.173,87.28 C238.677,87.28 241.620,90.360 241.620,95.391 C241.620,100.56 238.923,103.818 233.987,103.818 ZM234.36,89.567 C231.218,89.567 229.689,91.815 229.689,95.423 C229.689,98.856 231.361,101.278 234.99,101.278 C236.885,101.278 238.448,98.962 238.448,95.437 C238.448,91.878 236.887,89.567 234.36,89.567 ZM231.559,62.530 C231.559,60.228 230.680,58.659 228.327,58.659 C225.523,58.659 224.332,60.718 224.332,63.865 L224.332,72.440 L221.240,72.440 L221.240,60.446 C221.240,59.60 221.240,57.637 221.208,56.406 L224.212,56.406 C224.289,56.867 224.335,58.441 224.332,58.925 C224.953,57.620 226.259,56.28 229.303,56.28 C232.349,56.28 234.651,57.932 234.651,62.149 L234.651,72.440 L231.559,72.440 L231.559,62.530 ZM223.27,103.440 L219.935,103.440 L219.935,80.342 L223.27,80.342 L223.27,103.440 ZM210.115,72.818 C205.448,72.818 202.644,69.265 202.644,64.451 C202.644,59.675 205.419,56.28 210.301,56.28 C214.805,56.28 217.748,59.360 217.748,64.391 C217.748,69.56 215.51,72.818 210.115,72.818 ZM210.163,58.567 C207.346,58.567 205.817,60.815 205.817,64.423 C205.817,67.856 207.489,70.278 210.226,70.278 C213.12,70.278 214.576,67.962 214.576,64.437 C214.576,60.878 213.15,58.567 210.163,58.567 ZM209.474,87.28 C214.711,87.28 216.440,91.145 216.440,94.678 C216.440,95.177 216.440,95.575 216.394,96.13 L205.233,96.13 C205.250,99.31 206.768,101.278 209.391,101.278 C211.793,101.278 212.558,100.82 213.53,98.948 L216.162,98.948 C215.544,100.983 213.817,103.818 209.299,103.818 C204.211,103.818 202.110,99.749 202.110,95.606 C202.110,90.787 204.546,87.28 209.474,87.28 ZM213.314,93.911 C213.282,91.423 212.68,89.410 209.440,89.410 C206.754,89.410 205.588,91.277 205.328,93.911 L213.314,93.911 ZM196.116,62.281 C196.116,60.500 195.474,58.644 193.103,58.644 C190.635,58.644 189.578,60.471 189.578,63.240 L189.578,72.440 L186.546,72.440 L186.546,62.384 C186.546,60.400 185.997,58.659 183.600,58.659 C181.175,58.659 180.9,60.552 180.9,63.550 L180.9,72.440 L176.946,72.440 L176.946,60.540 C176.946,59.157 176.946,57.720 176.914,56.406 L179.889,56.406 C179.935,56.869 180.12,57.995 180.9,58.765 C180.756,57.376 182.134,56.28 184.633,56.28 C186.910,56.28 188.413,57.187 189.14,58.817 C189.888,57.336 191.377,56.28 194.91,56.28 C196.731,56.28 199.150,57.600 199.150,61.906 L199.150,72.440 L196.116,72.440 L196.116,62.281 ZM180.546,93.149 L180.546,103.440 L177.454,103.440 L177.454,93.530 C177.454,91.228 176.575,89.659 174.221,89.659 C171.418,89.659 170.227,91.718 170.227,94.865 L170.227,103.440 L167.134,103.440 L167.134,91.446 C167.134,90.60 167.134,88.637 167.103,87.406 L170.106,87.406 C170.184,87.867 170.229,89.441 170.227,89.925 C170.848,88.620 172.154,87.28 175.197,87.28 C178.244,87.28 180.546,88.932 180.546,93.149 ZM169.314,62.281 C169.314,60.500 168.673,58.644 166.302,58.644 C163.834,58.644 162.777,60.471 162.777,63.240 L162.777,72.440 L159.745,72.440 L159.745,62.384 C159.745,60.400 159.195,58.659 156.799,58.659 C154.373,58.659 153.208,60.552 153.208,63.550 L153.208,72.440 L150.144,72.440 L150.144,60.540 C150.144,59.157 150.144,57.720 150.113,56.406 L153.88,56.406 C153.133,56.869 153.211,57.995 153.208,58.765 C153.955,57.376 155.333,56.28 157.832,56.28 C160.109,56.28 161.612,57.187 162.213,58.817 C163.86,57.336 164.575,56.28 167.290,56.28 C169.930,56.28 172.349,57.600 172.349,61.906 L172.349,72.440 L169.314,72.440 L169.314,62.281 ZM156.212,89.393 C153.690,89.393 153.246,90.618 152.971,91.852 L149.993,91.852 C150.211,89.519 151.654,87.13 156.315,87.28 C160.307,87.42 162.509,88.654 162.509,92.333 L162.509,99.818 C162.509,101.290 162.635,102.993 162.729,103.440 L159.772,103.440 C159.646,103.91 159.551,102.312 159.517,101.444 C158.953,102.481 157.710,103.818 154.652,103.818 C150.855,103.818 149.237,101.341 149.237,98.893 C149.237,95.300 152.72,93.653 156.825,93.653 C157.876,93.653 158.887,93.653 159.474,93.653 L159.474,92.362 C159.474,91.2 159.30,89.393 156.212,89.393 ZM157.48,95.723 C153.953,95.723 152.381,96.594 152.381,98.716 C152.381,100.285 153.441,101.453 155.345,101.453 C159.4,101.453 159.491,98.976 159.491,96.219 L159.491,95.723 C159.7,95.723 157.859,95.723 157.48,95.723 ZM139.34,72.818 C134.366,72.818 131.563,69.265 131.563,64.451 C131.563,59.675 134.338,56.28 139.220,56.28 C143.724,56.28 146.667,59.360 146.667,64.391 C146.667,69.56 143.970,72.818 139.34,72.818 ZM139.82,58.567 C136.265,58.567 134.736,60.815 134.736,64.423 C134.736,67.856 136.408,70.278 139.145,70.278 C141.931,70.278 143.495,67.962 143.495,64.437 C143.495,60.878 141.934,58.567 139.82,58.567 ZM120.132,83.912 C115.482,83.912 113.598,88.133 113.598,92.474 C113.598,96.654 115.365,101.58 120.258,101.58 C123.577,101.58 124.960,99.100 125.704,97.135 L128.965,97.135 C128.12,100.918 125.186,103.721 120.124,103.721 C113.507,103.721 110.211,98.767 110.211,92.577 C110.211,86.624 113.529,81.249 120.255,81.249 C125.541,81.249 128.344,84.282 128.968,87.938 L125.722,87.938 C125.0,85.687 123.500,83.912 120.132,83.912 ZM120.132,52.912 C115.482,52.912 113.598,57.133 113.598,61.474 C113.598,65.654 115.365,70.58 120.258,70.58 C123.577,70.58 124.960,68.100 125.704,66.135 L128.965,66.135 C128.12,69.918 125.186,72.721 120.124,72.721 C113.507,72.721 110.211,67.767 110.211,61.577 C110.211,55.624 113.529,50.249 120.255,50.249 C125.541,50.249 128.344,53.282 128.968,56.938 L125.722,56.938 C125.0,54.687 123.500,52.912 120.132,52.912 ZM135.569,89.679 C136.365,88.342 137.794,87.28 140.494,87.28 C143.146,87.28 145.889,88.505 145.889,93.195 L145.889,103.440 L142.811,103.440 L142.811,93.696 C142.811,91.93 141.737,89.659 139.495,89.659 C136.692,89.659 135.569,91.551 135.569,94.724 L135.569,103.440 L132.477,103.440 L132.477,80.342 L135.569,80.342 L135.569,89.679 ZM190.649,103.340 C186.649,103.340 184.15,100.76 184.15,95.451 C184.15,90.260 187.53,87.28 190.956,87.28 C193.954,87.28 195.225,88.439 195.566,89.441 C195.597,88.771 195.672,87.726 195.703,87.406 L198.629,87.406 C198.615,88.431 198.580,90.489 198.580,92.30 L198.580,101.897 C198.580,107.37 196.502,110.26 191.104,110.26 C186.51,110.26 184.622,107.197 184.359,105.89 L187.511,105.89 C187.949,106.719 189.243,107.615 191.239,107.615 C194.732,107.615 195.566,105.413 195.566,101.828 L195.566,100.634 C194.715,102.352 193.272,103.340 190.649,103.340 ZM195.654,95.122 C195.654,91.695 194.795,89.610 191.488,89.610 C188.725,89.610 187.216,91.898 187.216,95.317 C187.216,98.578 188.900,100.743 191.394,100.743 C194.701,100.743 195.654,98.515 195.654,95.122 Z"/>
</svg>
